<svg xmlns="http://www.w3.org/2000/svg" viewBox="0 0 900 360" width="900" height="360" role="img"><defs><linearGradient id="tb" x1="0" y1="0" x2="1" y2="1"><stop offset="0" stop-color="#fff" stop-opacity=".16"/><stop offset=".5" stop-color="#fff" stop-opacity=".04"/><stop offset="1" stop-color="#fff" stop-opacity=".1"/></linearGradient><clipPath id="tc"><rect width="900" height="360" rx="28"/></clipPath><radialGradient id="tg0"><stop offset="0" stop-color="#3b82f6" stop-opacity="0.28"/><stop offset="1" stop-color="#3b82f6" stop-opacity="0"/></radialGradient><radialGradient id="tg1"><stop offset="0" stop-color="#8b5cf6" stop-opacity="0.3"/><stop offset="1" stop-color="#8b5cf6" stop-opacity="0"/></radialGradient><radialGradient id="tg2"><stop offset="0" stop-color="#14b8a6" stop-opacity="0.25"/><stop offset="1" stop-color="#14b8a6" stop-opacity="0"/></radialGradient></defs><g clip-path="url(#tc)"><rect width="900" height="360" fill="#04060c"/><circle cx="450" cy="340" r="320" fill="url(#tg0)"><animateTransform attributeName="transform" type="translate" values="0 0;34 -16;0 0" dur="10s" repeatCount="indefinite"/></circle><circle cx="120" cy="60" r="220" fill="url(#tg1)"><animateTransform attributeName="transform" type="translate" values="0 0;-34 20;0 0" dur="13s" repeatCount="indefinite"/></circle><circle cx="800" cy="300" r="220" fill="url(#tg2)"><animateTransform attributeName="transform" type="translate" values="0 0;34 -16;0 0" dur="16s" repeatCount="indefinite"/></circle><text x="450" y="56" text-anchor="middle" font-family="ui-monospace,SFMono-Regular,'SF Mono',Menlo,Consolas,'Liberation Mono',monospace" font-size="14" letter-spacing="7" fill="#4d8dff" fill-opacity=".8">TECH STACK</text><rect x="222" y="98.0" width="110" height="40" rx="20.0" fill="#3b82f6" fill-opacity=".09" stroke="#3b82f6" stroke-opacity=".4"/><circle cx="244" cy="118" r="4.5" fill="#3b82f6"/><text x="258" y="123" font-family="'Inter','Segoe UI',system-ui,-apple-system,'Helvetica Neue',Arial,sans-serif" font-size="15" fill="#dbe4f0" letter-spacing=".3">Python</text><rect x="346" y="98.0" width="84" height="40" rx="20.0" fill="#22d3ee" fill-opacity=".09" stroke="#22d3ee" stroke-opacity=".4"/><circle cx="368" cy="118" r="4.5" fill="#22d3ee"/><text x="382" y="123" font-family="'Inter','Segoe UI',system-ui,-apple-system,'Helvetica Neue',Arial,sans-serif" font-size="15" fill="#dbe4f0" letter-spacing=".3">SQL</text><rect x="444" y="98.0" width="101" height="40" rx="20.0" fill="#22c55e" fill-opacity=".09" stroke="#22c55e" stroke-opacity=".4"/><circle cx="466" cy="118" r="4.5" fill="#22c55e"/><text x="480" y="123" font-family="'Inter','Segoe UI',system-ui,-apple-system,'Helvetica Neue',Arial,sans-serif" font-size="15" fill="#dbe4f0" letter-spacing=".3">Excel</text><rect x="559" y="98.0" width="118" height="40" rx="20.0" fill="#f59e0b" fill-opacity=".09" stroke="#f59e0b" stroke-opacity=".4"/><circle cx="581" cy="118" r="4.5" fill="#f59e0b"/><text x="595" y="123" font-family="'Inter','Segoe UI',system-ui,-apple-system,'Helvetica Neue',Arial,sans-serif" font-size="15" fill="#dbe4f0" letter-spacing=".3">Jupyter</text><rect x="108" y="166.0" width="110" height="40" rx="20.0" fill="#8b5cf6" fill-opacity=".09" stroke="#8b5cf6" stroke-opacity=".4"/><circle cx="130" cy="186" r="4.5" fill="#8b5cf6"/><text x="144" y="191" font-family="'Inter','Segoe UI',system-ui,-apple-system,'Helvetica Neue',Arial,sans-serif" font-size="15" fill="#dbe4f0" letter-spacing=".3">Pandas</text><rect x="232" y="166.0" width="101" height="40" rx="20.0" fill="#3b82f6" fill-opacity=".09" stroke="#3b82f6" stroke-opacity=".4"/><circle cx="254" cy="186" r="4.5" fill="#3b82f6"/><text x="268" y="191" font-family="'Inter','Segoe UI',system-ui,-apple-system,'Helvetica Neue',Arial,sans-serif" font-size="15" fill="#dbe4f0" letter-spacing=".3">NumPy</text><rect x="347" y="166.0" width="101" height="40" rx="20.0" fill="#22d3ee" fill-opacity=".09" stroke="#22d3ee" stroke-opacity=".4"/><circle cx="369" cy="186" r="4.5" fill="#22d3ee"/><text x="383" y="191" font-family="'Inter','Segoe UI',system-ui,-apple-system,'Helvetica Neue',Arial,sans-serif" font-size="15" fill="#dbe4f0" letter-spacing=".3">SciPy</text><rect x="462" y="166.0" width="153" height="40" rx="20.0" fill="#ec4899" fill-opacity=".09" stroke="#ec4899" stroke-opacity=".4"/><circle cx="484" cy="186" r="4.5" fill="#ec4899"/><text x="498" y="191" font-family="'Inter','Segoe UI',system-ui,-apple-system,'Helvetica Neue',Arial,sans-serif" font-size="15" fill="#dbe4f0" letter-spacing=".3">Statsmodels</text><rect x="629" y="166.0" width="162" height="40" rx="20.0" fill="#f59e0b" fill-opacity=".09" stroke="#f59e0b" stroke-opacity=".4"/><circle cx="651" cy="186" r="4.5" fill="#f59e0b"/><text x="665" y="191" font-family="'Inter','Segoe UI',system-ui,-apple-system,'Helvetica Neue',Arial,sans-serif" font-size="15" fill="#dbe4f0" letter-spacing=".3">scikit-learn</text><rect x="113" y="234.0" width="127" height="40" rx="20.0" fill="#f59e0b" fill-opacity=".09" stroke="#f59e0b" stroke-opacity=".4"/><circle cx="135" cy="254" r="4.5" fill="#f59e0b"/><text x="149" y="259" font-family="'Inter','Segoe UI',system-ui,-apple-system,'Helvetica Neue',Arial,sans-serif" font-size="15" fill="#dbe4f0" letter-spacing=".3">Power BI</text><rect x="254" y="234.0" width="118" height="40" rx="20.0" fill="#3b82f6" fill-opacity=".09" stroke="#3b82f6" stroke-opacity=".4"/><circle cx="276" cy="254" r="4.5" fill="#3b82f6"/><text x="290" y="259" font-family="'Inter','Segoe UI',system-ui,-apple-system,'Helvetica Neue',Arial,sans-serif" font-size="15" fill="#dbe4f0" letter-spacing=".3">Tableau</text><rect x="386" y="234.0" width="145" height="40" rx="20.0" fill="#22d3ee" fill-opacity=".09" stroke="#22d3ee" stroke-opacity=".4"/><circle cx="408" cy="254" r="4.5" fill="#22d3ee"/><text x="422" y="259" font-family="'Inter','Segoe UI',system-ui,-apple-system,'Helvetica Neue',Arial,sans-serif" font-size="15" fill="#dbe4f0" letter-spacing=".3">Matplotlib</text><rect x="545" y="234.0" width="118" height="40" rx="20.0" fill="#14b8a6" fill-opacity=".09" stroke="#14b8a6" stroke-opacity=".4"/><circle cx="567" cy="254" r="4.5" fill="#14b8a6"/><text x="581" y="259" font-family="'Inter','Segoe UI',system-ui,-apple-system,'Helvetica Neue',Arial,sans-serif" font-size="15" fill="#dbe4f0" letter-spacing=".3">Seaborn</text><rect x="677" y="234.0" width="110" height="40" rx="20.0" fill="#8b5cf6" fill-opacity=".09" stroke="#8b5cf6" stroke-opacity=".4"/><circle cx="699" cy="254" r="4.5" fill="#8b5cf6"/><text x="713" y="259" font-family="'Inter','Segoe UI',system-ui,-apple-system,'Helvetica Neue',Arial,sans-serif" font-size="15" fill="#dbe4f0" letter-spacing=".3">Plotly</text><rect x="64" y="302.0" width="145" height="40" rx="20.0" fill="#3b82f6" fill-opacity=".09" stroke="#3b82f6" stroke-opacity=".4"/><circle cx="86" cy="322" r="4.5" fill="#3b82f6"/><text x="100" y="327" font-family="'Inter','Segoe UI',system-ui,-apple-system,'Helvetica Neue',Arial,sans-serif" font-size="15" fill="#dbe4f0" letter-spacing=".3">PostgreSQL</text><rect x="223" y="302.0" width="101" height="40" rx="20.0" fill="#f59e0b" fill-opacity=".09" stroke="#f59e0b" stroke-opacity=".4"/><circle cx="245" cy="322" r="4.5" fill="#f59e0b"/><text x="259" y="327" font-family="'Inter','Segoe UI',system-ui,-apple-system,'Helvetica Neue',Arial,sans-serif" font-size="15" fill="#dbe4f0" letter-spacing=".3">MySQL</text><rect x="338" y="302.0" width="171" height="40" rx="20.0" fill="#22c55e" fill-opacity=".09" stroke="#22c55e" stroke-opacity=".4"/><circle cx="360" cy="322" r="4.5" fill="#22c55e"/><text x="374" y="327" font-family="'Inter','Segoe UI',system-ui,-apple-system,'Helvetica Neue',Arial,sans-serif" font-size="15" fill="#dbe4f0" letter-spacing=".3">Google Sheets</text><rect x="523" y="302.0" width="136" height="40" rx="20.0" fill="#ec4899" fill-opacity=".09" stroke="#ec4899" stroke-opacity=".4"/><circle cx="545" cy="322" r="4.5" fill="#ec4899"/><text x="559" y="327" font-family="'Inter','Segoe UI',system-ui,-apple-system,'Helvetica Neue',Arial,sans-serif" font-size="15" fill="#dbe4f0" letter-spacing=".3">Streamlit</text><rect x="673" y="302.0" width="162" height="40" rx="20.0" fill="#dbe4f0" fill-opacity=".09" stroke="#dbe4f0" stroke-opacity=".4"/><circle cx="695" cy="322" r="4.5" fill="#dbe4f0"/><text x="709" y="327" font-family="'Inter','Segoe UI',system-ui,-apple-system,'Helvetica Neue',Arial,sans-serif" font-size="15" fill="#dbe4f0" letter-spacing=".3">Git &amp; GitHub</text></g><rect x=".5" y=".5" width="899" height="359" rx="28" fill="none" stroke="url(#tb)"/></svg>